<svg xmlns="http://www.w3.org/2000/svg" width="94" height="86" viewBox="0 0 94 86">
    <g fill="none" fill-rule="nonzero">
        <path fill="#9BAEB2" d="M46.934 85.976L0 58.77v-3.266L46.934 82.71z"/>
        <path fill="#707D7F" d="M46.934 85.976V82.71L93.87 55.506v3.265z"/>
        <path fill="#BFD7DD" d="M46.934 82.71L0 55.506V54.28l46.934 27.206z"/>
        <path fill="#80ACB7" d="M46.934 82.71v-1.224L93.87 54.28v1.226z"/>
        <path fill="#EDEDED" d="M46.934 81.486L0 54.28l46.934-27.204L93.87 54.28z"/>
        <path fill="#2E4149" d="M55.952 71.239h8.661L93.87 54.28l-10.511-6.092z" opacity=".3" style="mix-blend-mode:multiply"/>
        <path fill="#DCEAEF" d="M25.597 58.856c-.297-.165-.297-.435 0-.6L30 55.841 24.812 53l-4.403 2.415c-3.159 1.732-3.159 4.55 0 6.281.296.166.296.435 0 .6L17 64.158 22.188 67l3.409-1.862c3.158-1.733 3.158-4.551 0-6.282z"/>
        <path fill="#FFF" d="M18.017 48.47v.899l37.399 21.879v-.9z"/>
        <path fill="#80ACB7" d="M84.874 53.166L55.416 70.348v.9l29.458-17.182z"/>
        <path fill="#BFD7DD" d="M47.476 31.287l-29.46 17.182 37.4 21.88 29.458-17.183z"/>
        <path fill="#BFD7DD" d="M21.337 49.216l13.802 8.071v-8.316l-8.37-4.893v-.714l-5.432 3.169z"/>
        <path fill="#C3E1EA" d="M35.14 40.815l-8.37-4.893v8.156l8.37 4.893z"/>
        <path fill="#F0F5F7" d="M31.882 34.502V47.08l5.953 3.474V37.976z"/>
        <path fill="#BFD7DD" d="M32.665 39.35l1.86 1.088.002-.283-1.62-.947z"/>
        <path fill="#80ACB7" d="M32.665 36.735v2.615l.252-.142v-2.333z"/>
        <path fill="#4DD0E1" d="M32.906 36.875v2.333l1.621.947v-2.332z"/>
        <path fill="#B2EBF2" d="M33.33 38.954v-1.832l1.197.701zM34.527 38.095l-1.02.963.178.105.842-.786z"/>
        <path fill="#009BBF" d="M33.148 39.067v-2.05l-.242-.142v2.333l1.621.947v-.281z"/>
        <path fill="#BFD7DD" d="M35.19 40.826l1.862 1.089v-.282l-1.62-.948z"/>
        <path fill="#80ACB7" d="M35.192 38.212l-.002 2.614.252-.141.002-2.333z"/>
        <path fill="#4DD0E1" d="M35.433 38.352l-.002 2.333 1.621.948V39.3z"/>
        <path fill="#B2EBF2" d="M35.854 40.43l.002-1.83 1.196.7zM37.052 39.571l-1.02.964.178.104.842-.785z"/>
        <path fill="#009BBF" d="M35.672 40.545l.002-2.052-.241-.141-.002 2.333 1.621.948v-.283z"/>
        <g>
            <path fill="#BFD7DD" d="M32.665 42.771l1.86 1.089.002-.283-1.62-.947z"/>
            <path fill="#80ACB7" d="M32.665 40.155v2.616l.252-.141v-2.333z"/>
            <path fill="#4DD0E1" d="M32.906 40.297v2.333l1.621.947v-2.332z"/>
            <path fill="#B2EBF2" d="M33.33 42.376v-1.831l1.197.7zM34.527 41.516l-1.02.964.178.104.842-.787z"/>
            <path fill="#009BBF" d="M33.148 42.489v-2.051l-.242-.141v2.333l1.621.947v-.282z"/>
            <g>
                <path fill="#BFD7DD" d="M35.19 44.248l1.862 1.088v-.281l-1.62-.948z"/>
                <path fill="#80ACB7" d="M35.192 41.633l-.002 2.615.252-.141.002-2.334z"/>
                <path fill="#4DD0E1" d="M35.433 41.773l-.002 2.334 1.621.948V42.72z"/>
                <path fill="#B2EBF2" d="M35.854 43.852l.002-1.83 1.196.7zM37.052 42.993l-1.02.964.178.104.842-.786z"/>
                <path fill="#009BBF" d="M35.672 43.967l.002-2.052-.241-.142-.002 2.334 1.621.948v-.283z"/>
            </g>
        </g>
        <path fill="#FFF" d="M21.337 49.216l-1.681-.984v-16.47l1.681.983z"/>
        <path fill="#80ACB7" d="M21.337 49.216l1.683-.984v-16.47l-1.683.983z"/>
        <path fill="#80ACB7" d="M18.999 26.099v5.28l16.14 9.436v16.472L55.416 69.14V47.385z"/>
        <path fill="#4B6266" d="M55.416 47.385l27.742-16.137v21.755L55.416 69.14z"/>
        <g>
            <path fill="#FFF" d="M18.226 24.748v.898l37.19 21.74v-.9z"/>
            <path fill="#80ACB7" d="M83.654 30.057L55.416 46.486v.9l28.238-16.429z"/>
            <path fill="#BFD7DD" d="M46.466 8.32l-28.24 16.428 37.19 21.738 28.238-16.429z"/>
        </g>
        <g>
            <path fill="#4B4751" d="M36.052 0L20.009 24.808l35.407 20.697L71.46 20.697z"/>
            <path fill="#25202D" d="M71.46 20.697L55.416 45.505l26.691-15.539z"/>
            <g fill="#37323F">
                <path d="M57.53 42.226L22.102 21.56l-.133.205 35.428 20.665zM59.018 39.927L23.59 19.26l-.134.206 35.428 20.665zM60.505 37.626L25.077 16.962l-.133.206 35.428 20.664zM61.991 35.327L26.563 14.662l-.132.205 35.428 20.666zM63.48 33.028L28.05 12.363l-.134.205 35.43 20.665zM64.966 30.729L29.538 10.063l-.132.206 35.428 20.665zM66.453 28.428L31.025 7.764l-.133.204L66.32 28.634zM67.941 26.129L32.513 5.464l-.134.205 35.43 20.666zM69.428 23.83L34 3.165l-.133.205 35.428 20.665zM70.916 21.53L35.486.864l-.132.206 35.428 20.664zM56.787 43.375L21.358 22.71l-.132.206L56.654 43.58zM56.032 44.554L20.604 23.89l-.134.205L55.898 44.76zM58.273 41.076L22.845 20.411l-.132.206L58.14 41.282zM59.761 38.777L24.333 18.112l-.134.206 35.43 20.665zM61.248 36.477L25.82 15.813l-.133.205 35.429 20.664zM62.736 34.177L27.308 13.512l-.134.206 35.428 20.665zM64.223 31.878L28.795 11.213l-.133.206L64.09 32.084zM65.71 29.578L30.28 8.914l-.132.205 35.428 20.664zM67.198 27.279L31.77 6.613l-.134.206 35.428 20.665zM68.684 24.98L33.256 4.313l-.132.206 35.428 20.665zM70.173 22.679L34.743 2.015l-.133.206L70.04 22.884z"/>
            </g>
        </g>
        <g>
            <path fill="#F0F5F7" d="M38.352 44.725l3.743 2.186v8.262l-3.743-2.193v-8.255zm-.483-.85v9.391l4.71 2.755v-9.392l-4.71-2.754z"/>
            <path fill="#BFD7DD" d="M38.352 52.986l3.743 2.187v-.566l-3.257-1.904z"/>
            <path fill="#80ACB7" d="M38.352 44.725v8.261l.5-.283V45.01z"/>
            <path fill="#4DD0E1" d="M38.838 45.01v7.693l3.257 1.904v-7.696z"/>
            <path fill="#B2EBF2" d="M39.688 49.188v-3.683l2.407 1.406zM42.095 47.458l-2.05 1.938.357.209 1.693-1.58z"/>
            <path fill="#009BBF" d="M39.322 52.42v-7.128l-.484-.283v7.694l3.257 1.904v-.567z"/>
            <path fill="#BFD7DD" d="M42.095 50.594l-3.257-1.905-.292.169 3.549 2.075z"/>
            <path fill="#F0F5F7" d="M42.095 50.933l-3.55-2.075v.302l3.55 2.074z"/>
        </g>
        <g>
            <path fill="#F0F5F7" d="M47.855 50.291l3.742 2.187v8.261l-3.742-2.19v-8.258zm-.484-.85v9.394l4.71 2.754v-9.394l-4.71-2.753z"/>
            <path fill="#BFD7DD" d="M47.855 58.553l3.742 2.186v-.567L48.34 58.27z"/>
            <path fill="#80ACB7" d="M47.855 50.291v8.262l.5-.284v-7.695z"/>
            <path fill="#4DD0E1" d="M48.34 50.574v7.695l3.257 1.903v-7.694z"/>
            <path fill="#B2EBF2" d="M49.191 54.753V51.07l2.406 1.407zM51.597 53.025l-2.05 1.936.358.209 1.692-1.58z"/>
            <path fill="#009BBF" d="M48.824 57.986v-7.129l-.484-.283v7.695l3.257 1.903v-.565z"/>
            <path fill="#BFD7DD" d="M51.597 56.16l-3.257-1.904-.292.168 3.55 2.074z"/>
            <path fill="#F0F5F7" d="M51.597 56.498l-3.549-2.074v.303l3.55 2.073z"/>
        </g>
        <g>
            <path fill="#F0F5F7" d="M76.751 42.054v8.262l-3.74 2.187v-8.26l3.742-2.189h-.002zm.485-.85l-4.71 2.754v9.395l4.716-2.755v-9.393h-.006z"/>
            <path fill="#BFD7DD" d="M76.751 50.316l-3.742 2.186v-.565l3.257-1.904z"/>
            <path fill="#80ACB7" d="M76.766 42.054v8.262l-.5-.283v-7.694z"/>
            <path fill="#4DD0E1" d="M76.266 42.339v7.694l-3.257 1.904v-7.695z"/>
            <path fill="#B2EBF2" d="M75.415 46.517v-3.681l-2.406 1.406zM73.01 44.788l2.049 1.938-.357.208-1.693-1.58z"/>
            <path fill="#009BBF" d="M75.782 49.75v-7.129l.484-.282v7.694l-3.257 1.904v-.567z"/>
            <path fill="#BFD7DD" d="M73.01 47.924l3.256-1.904.292.167-3.549 2.075z"/>
            <path fill="#F0F5F7" d="M73.01 48.262l3.548-2.075v.303l-3.549 2.074z"/>
        </g>
        <g>
            <path fill="#F0F5F7" d="M65.556 48.61v8.262l-3.742 2.186v-8.261l3.742-2.186zm.484-.849l-4.71 2.753v9.394l4.71-2.753V47.76z"/>
            <path fill="#BFD7DD" d="M65.556 56.872l-3.742 2.186v-.567l3.257-1.903z"/>
            <path fill="#80ACB7" d="M65.57 48.61v8.262l-.5-.284v-7.695z"/>
            <path fill="#4DD0E1" d="M65.07 48.893v7.695l-3.256 1.903v-7.694z"/>
            <path fill="#B2EBF2" d="M64.222 53.072V49.39l-2.408 1.407zM61.814 51.342l2.05 1.938-.358.209-1.692-1.58z"/>
            <path fill="#009BBF" d="M64.587 56.305v-7.129l.484-.283v7.695l-3.257 1.903v-.565z"/>
            <path fill="#BFD7DD" d="M61.814 54.478l3.257-1.903.292.168-3.55 2.074z"/>
            <path fill="#F0F5F7" d="M61.814 54.817l3.549-2.074v.302l-3.55 2.075z"/>
        </g>
        <g>
            <path fill="#80ACB7" d="M28.55 16.257l22.823 13.342v7.739L28.55 23.994z"/>
            <path fill="#4B6266" d="M61.588 22.927l-10.215 14.41-.433-7.722z"/>
        </g>
        <g>
            <path fill="#BFD7DD" d="M38.81 9.584l-11.024 6.923 22.779 13.345 11.023-6.925z"/>
            <path fill="#80ACB7" d="M61.588 22.927l-.91 1.253-10.113 6.35v-.678z"/>
            <path fill="#FFF" d="M27.786 16.507v.68L50.565 30.53v-.678z"/>
            <g>
                <path fill="#37323F" d="M39.724 8.327l-11.938 7.5 22.779 13.345L62.5 21.671z"/>
                <path fill="#25202D" d="M62.5 21.67l-.912 1.257-11.023 6.925v-.68z"/>
                <path fill="#413B49" d="M27.786 15.827v.68l22.779 13.345v-.68z"/>
            </g>
        </g>
        <g>
            <path fill="#BFD7DD" d="M31.968 24.071l2.284 1.342v-.456l-1.858-1.087z"/>
            <path fill="#F0F5F7" d="M31.968 20.938v3.133l.445-.201v-2.676z"/>
            <path fill="#4DD0E1" d="M32.394 21.194v2.676l1.858 1.087V22.28z"/>
            <path fill="#B2EBF2" d="M32.88 23.578v-2.1l1.372.802zM34.252 22.592l-1.17 1.105.205.12.965-.901z"/>
            <path fill="#009BBF" d="M32.67 23.708v-2.353l-.276-.161v2.676l1.858 1.087v-.325z"/>
            <g>
                <path fill="#BFD7DD" d="M38.82 28.097l2.283 1.342v-.457l-1.858-1.087z"/>
                <path fill="#F0F5F7" d="M38.82 24.965v3.132l.444-.202v-2.674z"/>
                <path fill="#4DD0E1" d="M39.245 25.22v2.675l1.858 1.087v-2.675z"/>
                <path fill="#B2EBF2" d="M39.73 27.604v-2.1l1.373.803zM41.103 26.619l-1.17 1.105.204.119.966-.902z"/>
                <path fill="#009BBF" d="M39.522 27.734v-2.352l-.277-.161v2.674l1.858 1.087v-.323z"/>
            </g>
            <g>
                <path fill="#BFD7DD" d="M45.67 32.124l2.284 1.34v-.456l-1.86-1.087z"/>
                <path fill="#F0F5F7" d="M45.67 28.99v3.134l.444-.203.001-2.675z"/>
                <path fill="#4DD0E1" d="M46.096 29.246l-.001 2.675 1.859 1.087v-2.675z"/>
                <path fill="#B2EBF2" d="M46.58 31.631l.001-2.1 1.373.802zM47.954 30.644l-1.17 1.106.204.118.966-.9z"/>
                <path fill="#009BBF" d="M46.371 31.76l.002-2.352-.277-.162-.001 2.675 1.859 1.087v-.323z"/>
            </g>
        </g>
        <path fill="#2E4149" d="M51.373 37.338h4.703L62.5 21.67z" opacity=".3" style="mix-blend-mode:multiply"/>
        <g>
            <path fill="#2E4149" d="M33.764 62.993c-.084.162-.259.177-.428.158a.3.3 0 0 1 .029.096c.007.074-.036.143-.1.161a.405.405 0 0 1-.185-.007.734.734 0 0 1-.196-.07.237.237 0 0 1 .078.174c-.01.16-.2.087-.283.053a.667.667 0 0 1-.113-.06c.036.107.057.26-.054.317-.112.057-.185-.07-.23-.145a1.174 1.174 0 0 1-.038-.067.491.491 0 0 1-.048.082.173.173 0 0 1-.138.073.164.164 0 0 1-.144.099.256.256 0 0 1-.175-.096.781.781 0 0 1-.04-.053.354.354 0 0 1-.04.116.084.084 0 0 1-.094.04c-.102-.026-.132-.136-.161-.232l-.017-.06a.236.236 0 0 1-.086.135c-.051.03-.115.015-.148-.038a.385.385 0 0 1-.032-.224.206.206 0 0 1-.037.02.179.179 0 0 1-.101.02.386.386 0 0 1-.052.085.08.08 0 0 1-.121 0 .39.39 0 0 1-.095-.278v-.123a.269.269 0 0 1-.162.147.075.075 0 0 1-.085-.036.336.336 0 0 1 .031-.3.306.306 0 0 1-.242.036.123.123 0 0 1-.057-.073.139.139 0 0 1 .007-.097.582.582 0 0 1 .121-.145.88.88 0 0 1 .122-.102.342.342 0 0 1-.256-.029.087.087 0 0 1-.016-.128.463.463 0 0 1 .194-.135c-.111-.05-.242-.135-.185-.249.031-.066.12-.078.18-.086.084-.011.167-.014.251-.008h.047c-.026-.113 0-.242.14-.244a.4.4 0 0 1 .196.054.369.369 0 0 1 .017-.039.235.235 0 0 1 .204-.112.398.398 0 0 1 .252.086l.023.018c0-.08.058-.144.13-.146a.44.44 0 0 1 .27.181l.02.024h.05a.458.458 0 0 1 .006-.043.288.288 0 0 1 .152-.238c.127-.041.21.096.264.194.023.04.043.08.062.123.008-.02.018-.038.028-.057.035-.07.082-.16.165-.168.11-.01.13.107.145.192 0 .02 0 .04.009.061a.439.439 0 0 1 .25-.096c.101-.013.197.056.228.165a.278.278 0 0 1-.014.135c.09-.013.242-.031.29.06a.219.219 0 0 1 .149 0c.063.02.102.09.092.162a.367.367 0 0 1-.113.182.57.57 0 0 1-.057.051.146.146 0 0 1 .1.11c.007.03.001.06-.014.085a.238.238 0 0 1 .055.29z" opacity=".3" style="mix-blend-mode:multiply"/>
            <path fill="#008C47" d="M33.925 61.255a.311.311 0 0 0-.056-.169.443.443 0 0 0-.065-.064.103.103 0 0 1-.033-.045v-.01c-.003-.019 0-.04.01-.056a.334.334 0 0 0 0-.327c-.034-.053-.085-.083-.122-.135a.235.235 0 0 1-.042-.117.296.296 0 0 0 .036-.22.275.275 0 0 0-.235-.217c-.043 0-.045-.009-.046-.065a.639.639 0 0 0 0-.096.15.15 0 0 0-.08-.12.189.189 0 0 0-.15.009.14.14 0 0 1-.129 0 .13.13 0 0 1-.05-.06.319.319 0 0 0-.12-.34.208.208 0 0 0-.175-.015.253.253 0 0 0-.079.056c-.02.02-.05.08-.075.095.017-.012-.007-.037-.022-.059a.23.23 0 0 0-.229-.097c-.076.015-.121.077-.173.135a.265.265 0 0 1-.057-.01c-.032-.016-.044-.074-.057-.105a.29.29 0 0 0-.148-.16.32.32 0 0 0-.364.148c-.018.027-.034.082-.064.073a.362.362 0 0 0-.04-.035.271.271 0 0 0-.039-.046.161.161 0 0 0-.183-.027c-.111.056-.127.219-.145.338v.021a.387.387 0 0 0-.28-.069.235.235 0 0 0-.14.131.28.28 0 0 0-.007.204c.01.035.023.068.038.1.018.049.024.052 0 .098-.025.046-.04.04-.08.043a.26.26 0 0 0-.19.063.32.32 0 0 0-.054.306.347.347 0 0 0-.079.328.314.314 0 0 0-.164.186.354.354 0 0 0 .073.359c.02.02.05.03.07.051.056.054.037.107 0 .165a.363.363 0 0 0-.075.197.263.263 0 0 0 .122.222.749.749 0 0 0-.008.474c.03.073.092.124.164.135.04.005.081.005.121 0 .05 0 .136-.023.102.08-.012.04-.042.07-.054.11a.268.268 0 0 0-.009.121c.01.078.057.143.121.175a.204.204 0 0 0 .224-.041c.014.05.047.09.091.11.04.018.087.012.122-.018.057-.043.093-.135.16-.045.066.09.092.261.226.24.052 0 .112-.1.166-.134a.34.34 0 0 0 .122.21.147.147 0 0 0 .143.02c.057-.025.094-.118.16-.102.067.016.122.07.194.081a.221.221 0 0 0 .152-.03.226.226 0 0 0 .091-.22c.053.007.106.02.157.038.067.03.142.037.213.016a.355.355 0 0 0 .174-.303c.135.041.306.052.364-.127a.38.38 0 0 0-.017-.259.256.256 0 0 0 .242-.069.291.291 0 0 0 .073-.135.903.903 0 0 0 0-.199c0-.077.066-.123.1-.178a.298.298 0 0 0 .05-.145.444.444 0 0 0-.048-.235.298.298 0 0 0 .102-.234z"/>
            <path fill="#00AD31" d="M33.49 60.114a.372.372 0 0 0 .077-.142.28.28 0 0 0-.155-.073c-.044 0-.045-.008-.046-.065a.639.639 0 0 0 0-.096.15.15 0 0 0-.08-.12.189.189 0 0 0-.15.009.14.14 0 0 1-.129 0 .13.13 0 0 1-.05-.06.319.319 0 0 0-.12-.34.209.209 0 0 0-.175-.015.253.253 0 0 0-.079.056c-.02.02-.05.08-.075.096.017-.013-.007-.038-.022-.06a.23.23 0 0 0-.229-.097c-.076.015-.121.077-.173.135a.265.265 0 0 1-.057-.01c-.032-.016-.044-.074-.057-.105a.29.29 0 0 0-.148-.16.32.32 0 0 0-.364.148c-.018.027-.034.082-.064.073a.362.362 0 0 0-.04-.035.271.271 0 0 0-.039-.046.161.161 0 0 0-.183-.027c-.111.056-.127.219-.145.338v.021a.387.387 0 0 0-.28-.069.235.235 0 0 0-.14.131.28.28 0 0 0-.007.204c.01.035.023.068.038.1.018.05.024.052 0 .098-.025.046-.04.04-.08.043-.048 0-.097.01-.143.027-.028.175.074.342.23.378.027.007.065 0 .074.035.008.036-.022.059-.033.086a.261.261 0 0 0 .212.354c.052 0 .121-.031.174 0 .1.075-.042.243-.032.35.01.106.121.147.206.16.06.006.119.03.169.07.04.035.086.06.135.075.122.031.216-.11.232-.243a.361.361 0 0 0-.039-.202l-.016-.036c.009-.035.02-.097.062-.074.023.012.032.067.041.093a.333.333 0 0 0 .077.135.237.237 0 0 0 .242.054.12.12 0 0 0 .072-.088c.01-.054-.037-.098-.025-.142.012-.043.072.018.116.084a.426.426 0 0 0 .025.096c.02.047.053.087.095.112.071.039.156.03.22-.021a.27.27 0 0 0 .106-.248.215.215 0 0 0-.027-.067c-.007-.012-.034-.037-.039-.049.007.012.058-.007.078-.008.068 0 .14-.013.177-.093a.205.205 0 0 0-.049-.222c-.036-.04-.069-.092-.01-.135.06-.043.095-.007.137.016v.031c.031.154.12.285.243.361.043.046.106.06.162.037a.18.18 0 0 0 .088-.168.454.454 0 0 0-.11-.27.191.191 0 0 0 .062-.229c-.015-.043-.055-.073-.03-.116.025-.043.064-.047.09-.075z"/>
            <path fill="#00AD31" d="M33.175 61.074l-.045-.021.026.012-.032-.022-.012-.01a.083.083 0 0 0-.104-.016.098.098 0 0 0-.038.106c.01.027.022.053.034.08.012.027 0 .012 0 .018.01.044.042.078.082.09.035.01.073.001.102-.023a.134.134 0 0 0 .047-.101.127.127 0 0 0-.06-.113zM31.424 61.85a.395.395 0 0 0-.1-.196.226.226 0 0 0-.154-.081.169.169 0 0 0-.163.129.314.314 0 0 0 .049.225c.022.04.053.075.091.1.019.01.038.019.059.025h.01a.147.147 0 0 0 .204-.055.166.166 0 0 0 .004-.146zM31.881 61.84a.155.155 0 0 0-.104-.156h-.01a.126.126 0 0 0-.077 0 .145.145 0 0 0-.075.057.55.55 0 0 0-.06.212.15.15 0 0 0 .137.115.185.185 0 0 0 .122-.06.223.223 0 0 0 .067-.168z"/>
        </g>
        <g>
            <path fill="#2E4149" d="M18.67 54.082c-.102.167-.314.182-.52.162.018.031.03.064.035.1a.155.155 0 0 1-.122.164.577.577 0 0 1-.223 0 .98.98 0 0 1-.239-.072.23.23 0 0 1 .096.18c-.013.163-.243.088-.344.053a.865.865 0 0 1-.137-.062c.044.111.07.268-.066.326-.135.059-.224-.07-.28-.148a1.155 1.155 0 0 1-.045-.07.492.492 0 0 1-.057.085.223.223 0 0 1-.168.075.202.202 0 0 1-.175.101.33.33 0 0 1-.212-.098c-.017-.018-.035-.036-.05-.054a.334.334 0 0 1-.047.12.11.11 0 0 1-.115.04c-.123-.027-.16-.14-.195-.238l-.022-.063a.234.234 0 0 1-.103.14.143.143 0 0 1-.18-.04.342.342 0 0 1-.038-.23.267.267 0 0 1-.045.02.25.25 0 0 1-.122.021.392.392 0 0 1-.064.088.11.11 0 0 1-.147 0 .368.368 0 0 1-.116-.286v-.127a.313.313 0 0 1-.197.152.098.098 0 0 1-.103-.038.303.303 0 0 1 .037-.308.422.422 0 0 1-.294.038.132.132 0 0 1-.07-.076.123.123 0 0 1 .008-.1.674.674 0 0 1 .147-.148c.046-.039.095-.074.147-.106a.479.479 0 0 1-.309-.029.08.08 0 0 1-.02-.132.563.563 0 0 1 .236-.139c-.135-.051-.294-.139-.225-.255.039-.068.148-.08.22-.09.1-.01.202-.013.304-.007h.057c-.032-.114 0-.25.17-.25.082 0 .164.02.238.055a.21.21 0 0 1 .02-.04.3.3 0 0 1 .247-.115c.11-.002.217.03.306.09l.028.017c.001-.082.07-.149.158-.15.13.022.246.089.327.187l.025.024h.06v-.045a.294.294 0 0 1 .185-.244c.147-.043.255.098.32.198.028.041.053.083.075.127l.035-.059c.042-.07.1-.163.2-.172.134-.01.158.11.177.197 0 .021 0 .042.01.064a.58.58 0 0 1 .303-.1.263.263 0 0 1 .278.17.264.264 0 0 1-.018.139c.11-.014.295-.032.353.06a.31.31 0 0 1 .18 0 .15.15 0 0 1 .112.167.384.384 0 0 1-.137.188l-.07.054a.16.16 0 0 1 .123.111c.006.03 0 .062-.018.088a.22.22 0 0 1 .075.29z" opacity=".3" style="mix-blend-mode:multiply"/>
            <path fill="#008C47" d="M18.865 52.296a.29.29 0 0 0-.07-.174.433.433 0 0 0-.077-.066.108.108 0 0 1-.04-.046V52a.076.076 0 0 1 .012-.058.298.298 0 0 0 0-.336c-.041-.055-.103-.085-.147-.14a.22.22 0 0 1-.052-.119.265.265 0 0 0 .044-.226.318.318 0 0 0-.285-.224c-.053 0-.056-.008-.056-.066a.556.556 0 0 0 0-.1.155.155 0 0 0-.097-.121.267.267 0 0 0-.182.008.197.197 0 0 1-.156 0 .142.142 0 0 1-.06-.061.304.304 0 0 0-.148-.35.294.294 0 0 0-.211-.015.312.312 0 0 0-.096.057c-.023.02-.062.083-.091.098.02-.012-.009-.039-.027-.06a.303.303 0 0 0-.277-.1c-.093.014-.148.078-.21.138a.31.31 0 0 1-.071-.01c-.037-.016-.052-.076-.07-.108a.317.317 0 0 0-.177-.165.42.42 0 0 0-.442.152c-.022.028-.04.085-.078.075a.425.425 0 0 0-.048-.036.223.223 0 0 0-.27-.075c-.134.059-.155.225-.176.348a.12.12 0 0 0 0 .022.54.54 0 0 0-.34-.071.274.274 0 0 0-.168.135.25.25 0 0 0-.01.21c.012.035.03.069.046.102.016.033.03.053 0 .1-.03.047-.047.042-.095.045a.359.359 0 0 0-.234.065.291.291 0 0 0-.063.315.319.319 0 0 0-.097.336.408.408 0 0 0-.115.074.324.324 0 0 0 .004.486c.027.02.062.032.087.053.068.055.044.11 0 .17a.334.334 0 0 0-.091.202.264.264 0 0 0 .147.228.658.658 0 0 0-.009.487c.037.075.11.127.197.14a.718.718 0 0 0 .147 0c.06 0 .165-.024.124.081-.016.04-.052.072-.066.114a.237.237 0 0 0 .137.303.279.279 0 0 0 .271-.042.183.183 0 0 0 .11.114c.05.02.106.012.148-.02.069-.044.112-.138.194-.045.082.093.112.268.275.247.063-.007.135-.103.201-.139.018.087.071.164.147.215.052.032.116.04.174.021.07-.025.116-.12.197-.104.08.017.147.072.234.083a.309.309 0 0 0 .185-.032.218.218 0 0 0 .11-.225c.065.008.128.02.19.04a.434.434 0 0 0 .259.016.359.359 0 0 0 .212-.311c.163.041.37.053.44-.13a.342.342 0 0 0-.02-.267.35.35 0 0 0 .294-.071.29.29 0 0 0 .089-.14.788.788 0 0 0-.008-.203c0-.08.08-.127.122-.184a.277.277 0 0 0 .06-.148.398.398 0 0 0-.058-.242.288.288 0 0 0 .13-.24z"/>
            <path fill="#00AD31" d="M18.337 51.124a.384.384 0 0 0 .094-.148.37.37 0 0 0-.188-.075c-.053 0-.056-.008-.056-.066a.556.556 0 0 0 0-.099.155.155 0 0 0-.097-.122.267.267 0 0 0-.183.008.197.197 0 0 1-.156 0 .142.142 0 0 1-.06-.06.304.304 0 0 0-.147-.35.294.294 0 0 0-.212-.016.312.312 0 0 0-.095.057c-.024.02-.062.083-.091.098.02-.012-.01-.039-.027-.06a.303.303 0 0 0-.278-.1c-.092.015-.147.078-.21.138a.31.31 0 0 1-.07-.01c-.037-.016-.052-.076-.07-.108a.317.317 0 0 0-.178-.165.42.42 0 0 0-.44.153c-.023.027-.042.084-.079.075a.425.425 0 0 0-.048-.036.223.223 0 0 0-.27-.075c-.135.058-.155.225-.176.347a.12.12 0 0 0 0 .022.54.54 0 0 0-.34-.07.274.274 0 0 0-.169.135.25.25 0 0 0-.01.209c.013.036.03.069.047.102.016.034.03.053 0 .1-.03.048-.047.042-.096.045-.06 0-.118.01-.175.028-.033.18.09.351.28.388.032.007.08 0 .09.037.01.036-.027.06-.04.087-.05.11-.01.24.095.307a.323.323 0 0 0 .162.057c.063 0 .147-.032.21 0 .122.078-.05.25-.038.36.012.11.147.151.25.164a.411.411 0 0 1 .203.073c.05.035.106.061.166.077.147.032.262-.114.281-.25a.324.324 0 0 0-.047-.207l-.019-.038c.01-.036.024-.1.075-.076.028.012.038.07.05.096.018.053.05.1.093.138a.33.33 0 0 0 .294.055.123.123 0 0 0 .085-.09c.015-.056-.043-.102-.028-.14.015-.037.087.019.138.088a.473.473 0 0 0 .033.097.27.27 0 0 0 .114.115c.087.04.19.032.268-.022a.26.26 0 0 0 .128-.254.203.203 0 0 0-.032-.07c-.01-.012-.042-.037-.047-.05.008.013.07-.006.094-.008.082 0 .17-.014.214-.096a.189.189 0 0 0-.058-.227c-.045-.042-.084-.095-.012-.14.072-.044.115 0 .166.017v.032a.568.568 0 0 0 .294.371c.053.048.13.062.197.038a.18.18 0 0 0 .106-.172.424.424 0 0 0-.132-.278.182.182 0 0 0 .075-.236c-.02-.045-.068-.075-.037-.12.03-.044.078-.053.109-.08z"/>
            <path fill="#00AD31" d="M17.93 52.11l-.05-.022.029.012-.034-.023-.015-.01a.093.093 0 0 0-.111-.016.098.098 0 0 0-.042.109c.01.027.024.055.037.082a.08.08 0 0 0 0 .018.125.125 0 0 0 .198.07.135.135 0 0 0 .05-.105.13.13 0 0 0-.063-.116zM15.774 52.894a.385.385 0 0 0-.108-.197.25.25 0 0 0-.166-.08.18.18 0 0 0-.176.129.301.301 0 0 0 .051.225c.025.04.058.074.099.1.02.01.042.018.064.025h.01a.164.164 0 0 0 .22-.056.15.15 0 0 0 .006-.146zM16.341 52.897a.16.16 0 0 0-.112-.16h-.01a.142.142 0 0 0-.084 0 .156.156 0 0 0-.08.058.544.544 0 0 0-.065.22c.02.067.079.113.147.116a.204.204 0 0 0 .132-.061.224.224 0 0 0 .072-.173z"/>
        </g>
        <g>
            <path fill="#2E4149" d="M39.777 66.065c-.084.16-.257.177-.428.158.016.03.026.062.03.096.007.074-.036.143-.101.16a.399.399 0 0 1-.183 0 .746.746 0 0 1-.198-.07.243.243 0 0 1 .079.175c-.011.16-.201.085-.285.051a.51.51 0 0 1-.112-.06c.036.109.056.261-.054.318-.11.057-.184-.069-.23-.144l-.038-.068a.631.631 0 0 1-.049.083.164.164 0 0 1-.138.071.158.158 0 0 1-.144.099.246.246 0 0 1-.173-.096.542.542 0 0 1-.043-.052.354.354 0 0 1-.038.117.082.082 0 0 1-.094.039c-.103-.026-.132-.135-.161-.233l-.018-.059a.234.234 0 0 1-.085.135.113.113 0 0 1-.15-.038.398.398 0 0 1-.03-.224l-.037.02a.18.18 0 0 1-.102.02.36.36 0 0 1-.05.086.085.085 0 0 1-.122 0 .395.395 0 0 1-.095-.279v-.123a.267.267 0 0 1-.16.148.077.077 0 0 1-.087-.037.342.342 0 0 1 .032-.301.306.306 0 0 1-.243.038.124.124 0 0 1-.057-.075.14.14 0 0 1 .008-.097.608.608 0 0 1 .12-.145.966.966 0 0 1 .122-.102.33.33 0 0 1-.256-.029.085.085 0 0 1-.016-.127.465.465 0 0 1 .194-.135c-.111-.049-.242-.135-.185-.247.033-.068.121-.079.18-.088a1.43 1.43 0 0 1 .253-.008h.046c-.027-.112.006-.242.14-.243.068 0 .135.018.196.054a.369.369 0 0 1 .017-.04.228.228 0 0 1 .204-.112c.09 0 .179.03.252.087l.022.017c.002-.08.06-.145.131-.147a.447.447 0 0 1 .27.183l.02.024h.05v-.043a.288.288 0 0 1 .152-.238c.129-.042.211.097.266.194.02.038.041.08.06.122l.028-.055c.035-.07.083-.16.166-.168.11-.01.129.105.145.19 0 .022.007.042.01.063a.446.446 0 0 1 .248-.098c.102-.01.197.057.23.165a.3.3 0 0 1-.014.135c.09-.013.242-.03.29.061a.219.219 0 0 1 .148 0c.063.02.102.09.092.161a.38.38 0 0 1-.112.182.567.567 0 0 1-.058.053c.049.013.088.055.101.11.006.029 0 .06-.015.083.08.065.105.185.059.283z" opacity=".3" style="mix-blend-mode:multiply"/>
            <path fill="#008C47" d="M39.94 64.327a.31.31 0 0 0-.127-.231.125.125 0 0 1-.032-.043v-.011c-.004-.02 0-.04.008-.057a.326.326 0 0 0 0-.326c-.034-.054-.085-.082-.121-.135a.243.243 0 0 1-.044-.116.296.296 0 0 0 .038-.22.278.278 0 0 0-.237-.218c-.043 0-.044-.006-.044-.063a.636.636 0 0 0 0-.096.15.15 0 0 0-.08-.12.19.19 0 0 0-.15.009.14.14 0 0 1-.122 0 .13.13 0 0 1-.05-.06.317.317 0 0 0-.122-.34.2.2 0 0 0-.253.04c-.021.02-.052.08-.077.095.017-.01-.006-.036-.022-.058a.245.245 0 0 0-.069-.068.221.221 0 0 0-.16-.03c-.076.016-.12.078-.172.135a.166.166 0 0 1-.058-.01c-.031-.015-.044-.073-.057-.104a.284.284 0 0 0-.147-.16.319.319 0 0 0-.363.146c-.02.029-.035.083-.066.075a.27.27 0 0 0-.04-.037.26.26 0 0 0-.037-.044.164.164 0 0 0-.184-.029c-.11.058-.128.22-.146.34a.065.065 0 0 0 0 .021.392.392 0 0 0-.28-.069.236.236 0 0 0-.14.132.28.28 0 0 0-.008.203c.011.034.026.067.038.1.012.034.024.052 0 .098-.024.046-.038.04-.078.043a.256.256 0 0 0-.193.063.319.319 0 0 0-.052.306.347.347 0 0 0-.08.328.296.296 0 0 0-.095.072.339.339 0 0 0-.068.113.358.358 0 0 0 .072.358c.022.022.05.033.072.053.054.054.036.106 0 .164a.354.354 0 0 0-.075.197.262.262 0 0 0 .121.223.749.749 0 0 0-.008.473.22.22 0 0 0 .163.135.502.502 0 0 0 .127 0c.05 0 .135-.023.102.08-.013.039-.042.069-.056.11a.262.262 0 0 0-.007.12c.01.077.057.144.121.175a.21.21 0 0 0 .226-.04.16.16 0 0 0 .09.11c.04.018.086.011.12-.018.057-.045.093-.142.16-.046.066.096.093.26.226.241.052-.008.112-.1.168-.135a.34.34 0 0 0 .12.21.148.148 0 0 0 .144.02c.058-.024.094-.117.161-.103.067.015.121.072.194.083a.221.221 0 0 0 .151-.031.227.227 0 0 0 .091-.22c.053.007.106.02.157.039.068.03.142.036.213.016a.356.356 0 0 0 .175-.304c.134.04.305.051.37-.126a.387.387 0 0 0-.018-.26.26.26 0 0 0 .315-.203.921.921 0 0 0 0-.2c0-.076.066-.122.102-.179a.32.32 0 0 0 .049-.143.451.451 0 0 0-.049-.235.304.304 0 0 0 .092-.238z"/>
            <path fill="#00AD31" d="M39.504 63.185a.352.352 0 0 0 .077-.135.274.274 0 0 0-.156-.074c-.043 0-.044-.007-.044-.064a.636.636 0 0 0 0-.096.15.15 0 0 0-.08-.119.19.19 0 0 0-.15.008.14.14 0 0 1-.122 0 .13.13 0 0 1-.05-.06.317.317 0 0 0-.122-.34.2.2 0 0 0-.253.04c-.021.02-.052.08-.077.096.017-.011-.006-.037-.022-.059a.245.245 0 0 0-.069-.067.221.221 0 0 0-.16-.031c-.076.016-.12.078-.172.135a.166.166 0 0 1-.058-.01c-.031-.014-.044-.073-.057-.104a.284.284 0 0 0-.147-.16.319.319 0 0 0-.363.147c-.02.028-.035.082-.066.074a.27.27 0 0 0-.04-.036.26.26 0 0 0-.037-.045.164.164 0 0 0-.184-.028c-.11.058-.128.22-.146.339a.065.065 0 0 0 0 .022.392.392 0 0 0-.28-.07.236.236 0 0 0-.14.132.28.28 0 0 0-.008.204c.011.034.026.066.038.1s.024.051 0 .097c-.024.046-.038.04-.078.043a.372.372 0 0 0-.144.027c-.014.11.02.222.09.3a.31.31 0 0 0 .14.077c.027.008.064 0 .073.037.008.036-.022.058-.032.085a.257.257 0 0 0 .078.297.237.237 0 0 0 .135.057c.052 0 .12-.032.172 0 .1.076-.04.245-.032.35.009.105.121.149.206.16a.3.3 0 0 1 .169.071c.04.035.086.06.135.076.122.03.216-.112.232-.243a.357.357 0 0 0-.039-.202.371.371 0 0 1-.014-.038c.007-.035.018-.097.06-.074.023.014.033.068.043.095.014.051.04.098.075.135a.233.233 0 0 0 .242.052.118.118 0 0 0 .055-.089c.01-.054-.035-.098-.024-.135.01-.036.072.018.115.084a.503.503 0 0 0 .025.096c.021.047.054.085.095.11.071.04.156.032.22-.02a.268.268 0 0 0 .107-.247.239.239 0 0 0-.028-.069c-.006-.01-.034-.035-.039-.048.009.013.06 0 .078 0 .068 0 .142-.014.177-.094a.202.202 0 0 0-.049-.221c-.035-.042-.067-.092-.008-.135.06-.044.093 0 .137.016v.032c.031.153.12.284.242.36a.141.141 0 0 0 .162.038.184.184 0 0 0 .088-.168.454.454 0 0 0-.11-.27.191.191 0 0 0 .062-.23c-.015-.043-.056-.072-.03-.116.025-.045.076-.064.102-.095z"/>
            <path fill="#00AD31" d="M39.19 64.143l-.044-.02.024.011-.03-.022-.013-.009a.079.079 0 0 0-.097-.007.096.096 0 0 0-.04.096c.01.028.022.055.035.08v.02a.126.126 0 0 0 .081.09c.036.01.074 0 .103-.025a.124.124 0 0 0 .046-.1.133.133 0 0 0-.064-.114zM37.438 64.917a.396.396 0 0 0-.1-.198.22.22 0 0 0-.155-.08.166.166 0 0 0-.162.13.307.307 0 0 0 .048.224c.023.04.054.074.091.1.02.01.04.018.06.025h.008a.147.147 0 0 0 .205-.055.166.166 0 0 0 .005-.146zM37.895 64.912a.155.155 0 0 0-.104-.156h-.01a.148.148 0 0 0-.076 0 .149.149 0 0 0-.1.116.176.176 0 0 0-.035.148.139.139 0 0 0 .137.113.176.176 0 0 0 .122-.059.22.22 0 0 0 .066-.162z"/>
        </g>
        <g>
            <path fill="#2E4149" d="M44.804 70.019c-.084.162-.257.178-.428.158.015.03.025.062.029.096.007.074-.036.143-.1.16a.387.387 0 0 1-.185-.006.703.703 0 0 1-.196-.07.232.232 0 0 1 .078.174c-.01.16-.2.087-.283.053a.51.51 0 0 1-.112-.061c.035.108.056.26-.054.319-.11.058-.185-.07-.23-.146a.72.72 0 0 1-.038-.068.492.492 0 0 1-.049.083.165.165 0 0 1-.138.073.161.161 0 0 1-.144.098.246.246 0 0 1-.173-.096.427.427 0 0 1-.043-.052.335.335 0 0 1-.039.116.084.084 0 0 1-.093.04c-.103-.025-.132-.141-.161-.232a.585.585 0 0 1-.018-.06.235.235 0 0 1-.085.134.113.113 0 0 1-.15-.036.402.402 0 0 1-.03-.226.245.245 0 0 1-.037.02.171.171 0 0 1-.102.02.332.332 0 0 1-.052.086.08.08 0 0 1-.121 0 .392.392 0 0 1-.095-.278v-.122a.267.267 0 0 1-.161.146.075.075 0 0 1-.086-.035.342.342 0 0 1 .031-.302.3.3 0 0 1-.242.037.123.123 0 0 1-.057-.074.139.139 0 0 1 .007-.096.582.582 0 0 1 .121-.145.966.966 0 0 1 .122-.103.335.335 0 0 1-.256-.028.087.087 0 0 1-.016-.128.463.463 0 0 1 .194-.136c-.111-.05-.242-.135-.185-.248.032-.066.12-.077.18-.087.084-.01.168-.013.252-.008h.046c-.026-.112.007-.243.14-.243a.37.37 0 0 1 .196.054c0-.014.011-.027.017-.04a.235.235 0 0 1 .204-.113.4.4 0 0 1 .252.088l.023.018c0-.08.059-.146.13-.148a.45.45 0 0 1 .271.183l.02.024h.05c0-.015 0-.028.005-.043a.288.288 0 0 1 .152-.238c.128-.042.21.097.265.195.02.038.042.078.06.121l.029-.056c.035-.068.082-.159.166-.167.109-.01.128.106.144.19 0 .021.007.043.01.063a.427.427 0 0 1 .248-.097c.102-.012.197.056.23.165a.278.278 0 0 1-.015.135c.09-.014.242-.03.292.06a.227.227 0 0 1 .147 0c.063.02.103.089.093.161a.38.38 0 0 1-.113.183.567.567 0 0 1-.058.052.147.147 0 0 1 .102.109c.005.03 0 .06-.016.085a.237.237 0 0 1 .055.289z" opacity=".3" style="mix-blend-mode:multiply"/>
            <path fill="#008C47" d="M44.965 68.282a.303.303 0 0 0-.056-.17.443.443 0 0 0-.065-.065.133.133 0 0 1-.033-.044v-.01c-.004-.02-.001-.04.008-.057a.33.33 0 0 0 0-.325c-.034-.054-.084-.084-.12-.135a.249.249 0 0 1-.044-.117.296.296 0 0 0 .036-.22.277.277 0 0 0-.235-.217c-.044 0-.045-.008-.045-.064a.834.834 0 0 0 0-.096.152.152 0 0 0-.079-.12.203.203 0 0 0-.151.008.136.136 0 0 1-.128 0 .13.13 0 0 1-.05-.06.317.317 0 0 0-.122-.339.201.201 0 0 0-.254.04c-.02.02-.051.08-.075.095.016-.01-.008-.037-.022-.058a.245.245 0 0 0-.07-.067.212.212 0 0 0-.16-.031c-.076.016-.12.077-.172.135a.202.202 0 0 1-.056-.01c-.032-.016-.044-.074-.057-.105a.285.285 0 0 0-.148-.16.318.318 0 0 0-.364.148c-.02.028-.035.082-.065.074a.27.27 0 0 0-.04-.036.271.271 0 0 0-.04-.046.164.164 0 0 0-.182-.027c-.112.058-.128.219-.146.338v.021a.394.394 0 0 0-.278-.069.238.238 0 0 0-.14.132.282.282 0 0 0-.008.205c.01.034.025.066.037.1.012.034.024.051 0 .096-.024.044-.037.04-.079.044a.254.254 0 0 0-.191.064.32.32 0 0 0-.053.305.342.342 0 0 0-.08.327.34.34 0 0 0-.095.072.355.355 0 0 0 .005.473c.022.02.05.03.07.053.056.052.038.105 0 .163a.355.355 0 0 0-.076.197.262.262 0 0 0 .121.222.749.749 0 0 0-.008.474.223.223 0 0 0 .163.135.502.502 0 0 0 .127 0c.049 0 .135-.021.101.08-.012.04-.042.07-.054.11a.268.268 0 0 0-.008.121c.01.078.056.144.121.175a.204.204 0 0 0 .225-.04c.014.05.047.09.09.11.041.018.087.011.122-.02.056-.042.092-.134.159-.044.066.09.093.261.226.242.052-.008.112-.101.168-.142.013.085.057.16.12.21.043.03.096.039.144.021.058-.024.094-.117.161-.102.067.015.121.071.193.082a.213.213 0 0 0 .152-.032.224.224 0 0 0 .091-.22.71.71 0 0 1 .157.04c.068.03.142.035.213.015a.352.352 0 0 0 .175-.303c.134.04.305.051.363-.126a.384.384 0 0 0-.017-.26.258.258 0 0 0 .315-.203.903.903 0 0 0-.006-.199c0-.075.066-.121.102-.178a.326.326 0 0 0 .049-.145.443.443 0 0 0-.049-.233.295.295 0 0 0 .107-.232z"/>
            <path fill="#00AD31" d="M44.53 67.14a.376.376 0 0 0 .077-.141.274.274 0 0 0-.155-.075c-.044 0-.045-.008-.046-.063a.63.63 0 0 0 0-.096.152.152 0 0 0-.079-.12.203.203 0 0 0-.151.008.136.136 0 0 1-.128 0 .13.13 0 0 1-.05-.06.317.317 0 0 0-.122-.339.201.201 0 0 0-.254.04c-.02.02-.051.08-.075.095.017-.01-.008-.038-.022-.058a.245.245 0 0 0-.07-.067.212.212 0 0 0-.16-.032c-.076.017-.12.077-.171.136a.202.202 0 0 1-.057-.01c-.032-.016-.044-.074-.057-.105a.285.285 0 0 0-.148-.161.318.318 0 0 0-.364.149c-.02.028-.035.082-.065.074a.27.27 0 0 0-.04-.037.271.271 0 0 0-.04-.046.164.164 0 0 0-.182-.027c-.112.059-.127.22-.146.338v.022a.394.394 0 0 0-.278-.07.238.238 0 0 0-.14.133.282.282 0 0 0-.008.204c.01.034.025.067.037.1.012.034.025.052 0 .096-.024.045-.037.04-.078.045a.343.343 0 0 0-.143.027.37.37 0 0 0 .09.299c.04.039.088.066.14.078.025.008.064 0 .073.037.008.036-.022.056-.032.083a.258.258 0 0 0 .078.299.228.228 0 0 0 .133.055c.053 0 .121-.03.173 0 .1.076-.04.245-.031.35.008.106.121.149.206.161a.3.3 0 0 1 .168.07c.041.035.087.06.136.076.121.03.216-.112.232-.243a.364.364 0 0 0-.04-.203.202.202 0 0 1-.014-.036c.008-.035.018-.098.06-.075.024.013.034.068.042.095a.35.35 0 0 0 .076.135.233.233 0 0 0 .243.053.119.119 0 0 0 .071-.087c.011-.054-.035-.098-.024-.143.011-.045.072.019.115.085a.53.53 0 0 0 .026.096c.02.047.053.086.094.11.072.04.157.032.22-.02a.27.27 0 0 0 .106-.247.187.187 0 0 0-.026-.069.472.472 0 0 1-.04-.048c.008.012.06 0 .078-.007.068 0 .141-.013.177-.093a.202.202 0 0 0-.048-.222c-.035-.042-.068-.093-.009-.135.06-.042.094-.007.137.016v.033c.03.153.12.284.243.36a.141.141 0 0 0 .161.037.183.183 0 0 0 .087-.169.445.445 0 0 0-.108-.27.194.194 0 0 0 .061-.23c-.014-.043-.056-.073-.03-.116.025-.043.065-.046.09-.074z"/>
            <path fill="#00AD31" d="M44.217 68.1l-.044-.021.025.011-.031-.022-.013-.01a.083.083 0 0 0-.102-.015.099.099 0 0 0-.04.105c.01.028.022.055.035.08v.019c.01.043.041.078.081.089a.103.103 0 0 0 .103-.023.132.132 0 0 0 .046-.1.129.129 0 0 0-.06-.114zM42.465 68.873a.403.403 0 0 0-.1-.199.223.223 0 0 0-.155-.08.163.163 0 0 0-.162.128.313.313 0 0 0 .048.228.28.28 0 0 0 .09.098c.02.01.039.02.06.025h.01a.147.147 0 0 0 .204-.055.166.166 0 0 0 .005-.145zM42.922 68.866a.158.158 0 0 0-.104-.156h-.01a.137.137 0 0 0-.153.056.155.155 0 0 0-.024.058.184.184 0 0 0-.035.157c.019.065.073.11.136.113a.176.176 0 0 0 .123-.06.223.223 0 0 0 .067-.168z"/>
        </g>
        <g>
            <path fill="#2E4149" d="M50.798 74.101c-.083.167-.257.182-.427.163.015.03.024.064.028.098.008.077-.036.148-.1.166a.389.389 0 0 1-.184-.007.707.707 0 0 1-.196-.072.25.25 0 0 1 .079.179c-.011.164-.202.089-.285.054a.65.65 0 0 1-.112-.063c.035.112.056.268-.054.327-.11.058-.185-.071-.23-.149-.014-.022-.026-.046-.038-.07a.437.437 0 0 1-.049.085.168.168 0 0 1-.138.075.16.16 0 0 1-.143.102.252.252 0 0 1-.174-.099c-.016-.018-.03-.036-.043-.054a.36.36 0 0 1-.039.12c-.02.034-.058.05-.093.04-.103-.027-.132-.14-.161-.238l-.018-.062a.241.241 0 0 1-.085.139c-.05.032-.115.016-.148-.04a.407.407 0 0 1-.033-.23l-.036.021a.166.166 0 0 1-.102.02.393.393 0 0 1-.05.088.08.08 0 0 1-.122 0 .411.411 0 0 1-.096-.286 1.1 1.1 0 0 1 0-.126.271.271 0 0 1-.162.151c-.033.01-.067-.005-.085-.037a.357.357 0 0 1 .03-.309.295.295 0 0 1-.242.038.124.124 0 0 1-.058-.075.145.145 0 0 1 .007-.1.595.595 0 0 1 .121-.149.973.973 0 0 1 .121-.105.335.335 0 0 1-.256-.03.091.091 0 0 1-.016-.132.459.459 0 0 1 .196-.138c-.113-.052-.243-.14-.187-.256.033-.068.121-.08.18-.089.084-.01.169-.013.253-.008h.046c-.025-.115.006-.249.14-.25.068 0 .135.02.196.056a.227.227 0 0 1 .222-.156.39.39 0 0 1 .252.09l.021.017c.001-.083.06-.15.131-.15a.44.44 0 0 1 .27.187.172.172 0 0 1 .02.024H49v-.044a.295.295 0 0 1 .153-.245c.127-.043.21.099.264.199.02.04.041.082.06.126.01-.02.02-.039.028-.058.036-.07.083-.164.167-.172.109-.011.128.11.144.197 0 .02.007.042.01.064a.425.425 0 0 1 .25-.1c.1-.013.196.058.228.17a.325.325 0 0 1-.014.138c.09-.014.242-.032.29.061a.213.213 0 0 1 .148 0c.063.022.103.093.093.167a.399.399 0 0 1-.113.187l-.057.055a.145.145 0 0 1 .1.11c.006.031 0 .063-.015.088a.245.245 0 0 1 .062.297z" opacity=".3" style="mix-blend-mode:multiply"/>
            <path fill="#008C47" d="M50.96 72.315a.327.327 0 0 0-.057-.173.516.516 0 0 0-.064-.067.12.12 0 0 1-.034-.046v-.01c-.004-.02 0-.04.008-.058a.345.345 0 0 0 0-.336c-.032-.054-.085-.085-.12-.139a.26.26 0 0 1-.045-.12.311.311 0 0 0 .038-.226c-.03-.124-.124-.213-.236-.223-.044 0-.045-.009-.045-.067a.674.674 0 0 0 0-.099.159.159 0 0 0-.08-.122.186.186 0 0 0-.152.009.133.133 0 0 1-.127 0 .133.133 0 0 1-.05-.062.331.331 0 0 0-.122-.35.204.204 0 0 0-.175-.015.253.253 0 0 0-.078.057c-.02.02-.051.083-.077.099.017-.013-.006-.04-.022-.061a.227.227 0 0 0-.229-.1c-.076.015-.12.079-.172.138a.198.198 0 0 1-.058-.01c-.03-.016-.044-.076-.057-.108a.29.29 0 0 0-.147-.165c-.137-.043-.283.019-.363.153-.02.028-.034.085-.064.075a.525.525 0 0 0-.04-.036.47.47 0 0 0-.04-.047.16.16 0 0 0-.184-.028c-.11.058-.127.225-.145.347a.068.068 0 0 0 0 .022.382.382 0 0 0-.28-.07.24.24 0 0 0-.14.135.298.298 0 0 0-.008.209c.011.036.026.07.039.103.013.033.023.052 0 .1-.023.047-.038.041-.078.044a.257.257 0 0 0-.192.065.337.337 0 0 0-.052.314.367.367 0 0 0-.08.338.32.32 0 0 0-.162.191.373.373 0 0 0 .072.368c.022.021.05.032.071.053.055.056.037.11 0 .17a.363.363 0 0 0-.092.21.272.272 0 0 0 .121.229.79.79 0 0 0-.007.487c.03.075.091.127.163.139a.488.488 0 0 0 .127 0c.05 0 .134-.024.102.082-.014.04-.043.072-.055.114a.283.283 0 0 0-.008.123c.01.08.056.148.12.18a.199.199 0 0 0 .225-.042.171.171 0 0 0 .09.114c.04.019.087.011.121-.02.056-.044.092-.139.159-.045.066.093.093.268.226.247.054-.007.113-.103.168-.14a.354.354 0 0 0 .12.216c.043.032.096.04.144.02.058-.024.095-.12.161-.103.067.016.121.073.194.083a.216.216 0 0 0 .152-.032.235.235 0 0 0 .09-.225c.054.007.106.02.157.04a.31.31 0 0 0 .214.016.365.365 0 0 0 .174-.311c.134.041.305.052.363-.13a.408.408 0 0 0-.017-.268.253.253 0 0 0 .243-.07.3.3 0 0 0 .071-.14c.019-.072-.008-.138 0-.203.009-.066.065-.127.101-.184a.341.341 0 0 0 .048-.148.474.474 0 0 0-.048-.242.307.307 0 0 0 .12-.249z"/>
            <path fill="#00AD31" d="M50.525 71.143a.382.382 0 0 0 .076-.147.278.278 0 0 0-.155-.075c-.044 0-.045-.009-.045-.067a.674.674 0 0 0 0-.098.159.159 0 0 0-.08-.123.186.186 0 0 0-.151.009.133.133 0 0 1-.128 0 .133.133 0 0 1-.05-.061.331.331 0 0 0-.122-.35.204.204 0 0 0-.174-.016.253.253 0 0 0-.079.057c-.02.021-.05.084-.076.099.017-.013-.006-.04-.022-.061a.227.227 0 0 0-.23-.1c-.076.015-.12.079-.171.139a.198.198 0 0 1-.059-.01c-.03-.017-.043-.076-.057-.108a.29.29 0 0 0-.146-.166c-.137-.043-.283.019-.364.153-.02.028-.034.085-.064.075a.525.525 0 0 0-.04-.036.47.47 0 0 0-.039-.047.16.16 0 0 0-.184-.028c-.11.058-.127.225-.146.347a.068.068 0 0 0 0 .022.382.382 0 0 0-.28-.07.24.24 0 0 0-.139.135.298.298 0 0 0-.008.209c.01.036.025.07.038.103.014.033.023.053 0 .1-.023.047-.037.041-.077.044-.05 0-.098.01-.145.028a.391.391 0 0 0 .091.308c.04.04.088.067.14.08.026.008.064 0 .073.037.008.036-.022.06-.032.088-.042.11-.01.239.078.306.039.033.086.053.134.057.052 0 .121-.032.173 0 .1.078-.04.25-.031.36.01.11.121.152.205.164.06.006.119.031.168.072.04.037.087.063.137.078.121.032.215-.114.232-.25a.392.392 0 0 0-.04-.207l-.015-.037c.007-.037.018-.1.06-.077.043.024.034.07.043.096.015.053.04.1.075.139a.235.235 0 0 0 .243.054.119.119 0 0 0 .071-.089c.011-.057-.035-.103-.024-.147.011-.044.073.018.115.086a.528.528 0 0 0 .026.099.265.265 0 0 0 .095.115c.072.04.156.03.22-.022a.279.279 0 0 0 .107-.254.227.227 0 0 0-.028-.07c0-.012-.033-.037-.04-.05.01.013.06-.007.078-.008.068 0 .142-.014.177-.096a.212.212 0 0 0-.048-.228c-.035-.041-.068-.094-.009-.139.06-.044.094-.007.137.017a.135.135 0 0 0 0 .032c.03.158.119.293.243.37a.14.14 0 0 0 .162.038.19.19 0 0 0 .088-.172.48.48 0 0 0-.11-.278c.07-.049.096-.15.061-.234-.015-.045-.056-.075-.03-.12.028-.044.066-.047.092-.075z"/>
            <path fill="#00AD31" d="M50.212 72.128l-.045-.021.025.012-.03-.023-.015-.01a.077.077 0 0 0-.097-.008.1.1 0 0 0-.039.1c.01.028.022.055.034.083v.018c.01.046.043.08.083.092.035.01.073.002.101-.023a.134.134 0 0 0 .047-.104.13.13 0 0 0-.064-.116zM48.459 72.914a.395.395 0 0 0-.1-.197.226.226 0 0 0-.155-.08.168.168 0 0 0-.162.128.32.32 0 0 0 .047.226.28.28 0 0 0 .092.099c.019.01.039.02.06.025h.008a.147.147 0 0 0 .204-.056.166.166 0 0 0 .006-.145zM48.915 72.917c.003-.074-.04-.14-.103-.16h-.008a.122.122 0 0 0-.078 0 .146.146 0 0 0-.075.057.143.143 0 0 0-.026.06.188.188 0 0 0-.034.16c.018.068.073.115.136.116a.177.177 0 0 0 .123-.06.233.233 0 0 0 .065-.173z"/>
        </g>
    </g>
</svg>
